<svg xmlns="http://www.w3.org/2000/svg" width="20" height="21" viewBox="0 0 20 21">
  <path fill="#FFF" d="M10.4675566,2.48953364 C10.159009,2.31998683 9.77886274,2.31998683 9.47031518,2.48953364 L2.9620393,6.0658297 C2.65349175,6.23537651 2.46341862,6.54871193 2.46341862,6.88780555 L2.46341862,14.0403977 C2.46341862,14.3794913 2.65349175,14.6928267 2.9620393,14.8623735 L9.47031518,18.4386696 C9.77886274,18.6082164 10.159009,18.6082164 10.4675566,18.4386696 L16.9758324,14.8623735 C17.28438,14.6928267 17.4744531,14.3794913 17.4744531,14.0403977 L17.4744531,6.88780555 C17.4744531,6.54871193 17.28438,6.23537651 16.9758324,6.0658297 L10.4675566,2.48953364 Z M11.4647979,0.845581935 L17.9730738,4.421878 C18.8987165,4.93051843 19.4689359,5.8705247 19.4689359,6.88780555 L19.4689359,14.0403977 C19.4689359,15.0576785 18.8987165,15.9976848 17.9730738,16.5063252 L11.4647979,20.0826213 C10.5391553,20.5912617 9.39871647,20.5912617 8.47307381,20.0826213 L1.96479793,16.5063252 C1.03915527,15.9976848 0.468935869,15.0576785 0.468935869,14.0403977 L0.468935869,6.88780555 C0.468935869,5.8705247 1.03915527,4.93051843 1.96479793,4.421878 L8.47307381,0.845581935 C9.39871647,0.336941508 10.5391553,0.336941508 11.4647979,0.845581935 Z M10.9661772,6.66755779 L8.9716945,6.66755779 L8.9716945,9.51496566 L5.97997037,9.51496566 L5.97997037,11.4132376 L8.9716945,11.4132376 L8.9716945,14.2606454 L10.9661772,14.2606454 L10.9661772,11.4132376 L13.9579014,11.4132376 L13.9579014,9.51496566 L10.9661772,9.51496566 L10.9661772,6.66755779 Z"/>
</svg>
